<?xml version="1.0" encoding="UTF-8" standalone="no"?>
<svg
   xmlns:dc="http://purl.org/dc/elements/1.1/"
   xmlns:cc="http://creativecommons.org/ns#"
   xmlns:rdf="http://www.w3.org/1999/02/22-rdf-syntax-ns#"
   xmlns:svg="http://www.w3.org/2000/svg"
   xmlns="http://www.w3.org/2000/svg"
   xmlns:sodipodi="http://sodipodi.sourceforge.net/DTD/sodipodi-0.dtd"
   xmlns:inkscape="http://www.inkscape.org/namespaces/inkscape"
   id="svg824"
   width="32"
   height="32"
   version="1.1"
   viewBox="0 0 32 32"
   sodipodi:docname="shutdown.svg"
   inkscape:version="0.92.3 (unknown)">
  <metadata
     id="metadata17">
    <rdf:RDF>
      <cc:Work
         rdf:about="">
        <dc:format>image/svg+xml</dc:format>
        <dc:type
           rdf:resource="http://purl.org/dc/dcmitype/StillImage" />
      </cc:Work>
    </rdf:RDF>
  </metadata>
  <defs
     id="defs15" />
  <sodipodi:namedview
     pagecolor="#ffffff"
     bordercolor="#666666"
     borderopacity="1"
     objecttolerance="10"
     gridtolerance="10"
     guidetolerance="10"
     inkscape:pageopacity="0"
     inkscape:pageshadow="2"
     inkscape:window-width="1280"
     inkscape:window-height="982"
     id="namedview13"
     showgrid="false"
     inkscape:zoom="16.033923"
     inkscape:cx="19.621572"
     inkscape:cy="19.257107"
     inkscape:window-x="0"
     inkscape:window-y="0"
     inkscape:window-maximized="1"
     inkscape:current-layer="svg824" />
  <g
     id="system-shutdown"
     transform="translate(-32,-1020.36)">
    <rect
       id="rect17"
       x="32"
       y="1020.36"
       width="32"
       height="32"
       style="opacity:.00100002" />
    <g
       id="g33"
       transform="translate(32,1020.36)">
      <rect
         id="rect29"
         x="15"
         y="7.997798"
         width="2"
         height="8"
         ry="1"
         style="color:#0000ff;fill:#800000" />
      <path
         id="path31"
         d="m12.478516 9.9567966a7 7 0 0 0-3.478516 6.0410164 7 7 0 0 0 7 7 7 7 0 0 0 7-7 7 7 0 0 0-3.480469-6.0410164l-0.894531 1.7929694a5 5 0 0 1 2.375 4.248047 5 5 0 0 1-5 5 5 5 0 0 1-5-5 5 5 0 0 1 2.375-4.25z"
         style="fill:#800000" />
    </g>
  </g>
</svg>
