<?xml version="1.0" encoding="UTF-8" standalone="no"?>
<svg
   xmlns:dc="http://purl.org/dc/elements/1.1/"
   xmlns:cc="http://creativecommons.org/ns#"
   xmlns:rdf="http://www.w3.org/1999/02/22-rdf-syntax-ns#"
   xmlns:svg="http://www.w3.org/2000/svg"
   xmlns="http://www.w3.org/2000/svg"
   xmlns:sodipodi="http://sodipodi.sourceforge.net/DTD/sodipodi-0.dtd"
   xmlns:inkscape="http://www.inkscape.org/namespaces/inkscape"
   id="svg824"
   width="32"
   height="32"
   version="1.1"
   viewBox="0 0 32 32"
   sodipodi:docname="suspend.svg"
   inkscape:version="0.92.3 (unknown)">
  <metadata
     id="metadata17">
    <rdf:RDF>
      <cc:Work
         rdf:about="">
        <dc:format>image/svg+xml</dc:format>
        <dc:type
           rdf:resource="http://purl.org/dc/dcmitype/StillImage" />
      </cc:Work>
    </rdf:RDF>
  </metadata>
  <defs
     id="defs15" />
  <sodipodi:namedview
     pagecolor="#ffffff"
     bordercolor="#666666"
     borderopacity="1"
     objecttolerance="10"
     gridtolerance="10"
     guidetolerance="10"
     inkscape:pageopacity="0"
     inkscape:pageshadow="2"
     inkscape:window-width="1280"
     inkscape:window-height="982"
     id="namedview13"
     showgrid="false"
     inkscape:zoom="16.033923"
     inkscape:cx="20.111093"
     inkscape:cy="8.8502399"
     inkscape:window-x="0"
     inkscape:window-y="0"
     inkscape:window-maximized="1"
     inkscape:current-layer="svg824" />
  <g
     id="system-suspend"
     transform="translate(0,-1020.36)">
    <rect
       id="rect70"
       y="1020.36"
       width="32"
       height="32"
       style="opacity:.00100002" />
    <g
       id="g86"
       transform="translate(0,1020.3622)">
      <path
         id="path82"
         d="m13.99991 14.9978c-0.552285 0-1 0.447715-1 1s0.447715 1 1 1h4c0.552285 0 1-0.447715 1-1s-0.447715-1-1-1z"
         style="fill:#00e1ff;fill-opacity:1" />
      <path
         id="path84"
         d="m15.99991 8.9978a7 7 0 0 0-7 7 7 7 0 0 0 7 7 7 7 0 0 0 7-7 7 7 0 0 0-7-7zm0 2a5 5 0 0 1 5 5 5 5 0 0 1-5 5 5 5 0 0 1-5-5 5 5 0 0 1 5-5z"
         style="fill:#00e2ff;fill-opacity:1" />
    </g>
  </g>
</svg>
